<?xml version="1.0" encoding="UTF-8"?>
<svg id="Layer_1" data-name="Layer 1" xmlns="http://www.w3.org/2000/svg" viewBox="0 0 2597.71 1872.92">
  <path d="M560.25,893.95l1.87,212.81c-6.31,24.46-36.11,22.22-39.68-4.04l-4.21-431.67-53.77-266.19c-.12-7.28,5.03-16.85,11.97-19.51L2202.81.02c8.27-.38,15.84,5.7,19.11,13.05,15.01,61.62,32.55,122.67,47.7,184.23,2.66,10.82,11.93,39.18,11.84,47.86-.06,6.27-5.22,15.71-11.16,18.49l-1598.08,366.35,1494.5-32.05c42.19,5.94,97.68-7.94,137.92-1.79,7.12,1.09,13.25,5.58,15.58,12.42,2.09,6.13,2.99,22.81,3.53,30.47,3.57,50.83,3.92,102.87,5.94,154.02.69,17.39,4.26,38.87,4.26,55.92,0,33.18-42.93,15.93-63.08,23.06-485.36,4.17-970.54,12.84-1455.61,19.99-57.74.85-115.56-1.42-173.05,1.91l.49,213.44c-10.31,18.12-37.06,14.65-40.34-6.61-2.51-16.27.49-40.41-.05-57.94-.14-4.73-2.06-9.1-2.16-13.83-1.01-44.97,2.42-90.35-1.92-135.05h-37.99ZM2233.8,230.11l-197.41-149.6c-71.67,12.79-142.67,33.05-214.46,45.65l3.35,5.62,195.99,145.99,212.53-47.67ZM1803.91,328.09l-203.69-150.94-220.19,49.01,207.4,149.59,216.47-47.67ZM1366.03,428.06l-205.4-151.57-214.5,45.63,2.54,4.57,202.8,149,214.54-47.64ZM918.15,530.03l-195.25-157.39-212.65,47.47,3.46,8.06,195.97,147.53,208.47-45.67ZM2283.79,636.03l-219.9,5.03-162,194.88,219.92-3,158.89-185.02,3.1-11.9ZM1831.91,646.04l-219.53,4.41-154.34,184.54-4.01,8.96c47.14-4.55,95.47-.78,143.03-1.91,4.73-.11,9.1-2.02,13.83-2.16,19.62-.61,39.48,1.51,59.02-.96l162-192.89ZM1382.03,654.04l-215.53,6.41-172.37,189.5c76.44-3.77,153.43-.35,229.96-4.96l157.94-190.95ZM922.14,664.03l-212.38,6.03-151.08,171.34c-6.72,22.87,18.18,12.86,30.47,12.49,48.1-1.43,96.04.33,144.06-1.9,12.93-.6,26.11,1.28,38.94-1.05l149.97-186.91Z"/>
  <path d="M2333.77,1800.71c-1.69,7.92-13.78,12.2-20.99,13-37.64,4.2-87.81.36-127.89,2.08-13.22.57-26.58-.85-39.8.19-2.75.94-9.15,19.03-12.39,23.6-31.06,43.78-107.15,44.47-139.66,1.95-5.37-7.02-9.09-20.13-12.16-23.84-3.24-3.92-26.79-1.97-33.05-1.03-26.01,69.07-131.58,70.97-160.23,3.37l-2.6-.47-164.12,2.06c-354.92,4.41-709.91,12.17-1065.16,15.61-5.52-.97-11.83-4.71-13.95-10.05-1.73-4.36-3.14-20.66-3.5-26.49-5.89-95.14-3.96-196.31-5.94-291.98-.48-23.26-4.88-48.5-2.13-71.94,2.73-23.26,34.15-21.94,37.91.17l10.22,360.67,1167.58-15.91c-10.48-12.77-24.1-23.85-30.31-39.64l-2.6-.48c-18.04.62-36.12-.3-54.15.07-340.93,6.83-682.02,14.46-1023.22,17.66l-12.52-11.47c-4.79-74.85-5.06-150.06-6.81-225.13-.59-25.48-5.6-54.47-2.19-80,2.66-19.87,36.29-22.61,39.92,4.28,4.53,33.55.97,80.75,2.09,115.88.15,4.73,2.02,9.1,2.16,13.83,1.5,47.7.27,95.48,3.91,143.06l1037.74-18.01c-7.67-46.35,3.32-89.17,21.64-131.31,6.8-15.64,19.6-34.05,24.45-49.53,6.97-22.22,7.12-46.17,16.92-69.06,25.44-59.39,80.2-50.24,127.54-23.64,9.77,5.49,24.02,19.2,34.31,19.79,11.06.63,26.57-3.99,37.97-4.26,12.88-.3,35.05,4.86,45.68,1.67,4.64-1.39,31.72-24.66,42.05-29.93,86.97-44.36,127.54,36.32,122.18,112.43,9.86,19.84,13.86,45.68,22.64,65.34,1.22,2.73.22,3.13,4.45,2.53,1.77-13.67,14.81-23,16.11-36.9.77-8.21.21-19.63-.01-28.17-2.83-109.64-6.79-220.11-8.16-329.75-.27-21.48-3-60.64.2-79.95,2.7-16.29,30.15-18.24,34.98-3.22,7.59,23.59,2.23,83.05,2.81,111.16l6.1,294.84c6.3-7.95,33.52-17.94,38-22.97,1.97-2.21,1.77-3.28,2.09-5.91,2.82-23.4-1.86-48.82-2.2-72.01-1.34-93.47-.64-186.61-1.83-280.09-.27-21.34-4.69-44.33-2.13-65.95,1.63-13.72,15.44-20.82,27.05-12.94,11.24,7.63,6.25,23.04,7.01,34.96,3.34,52.58,3.25,107.17,4.06,159.89,1.18,76.32.26,152.73,1.94,229.02,50.85-14.16,125.82,3.96,151.02,53.91,20.96,41.55-7.01,87.41-52.31,91.8-32.6,3.16-58.82-15.93-90.73-13.75v180.95ZM2133.57,1757.44c10.43-15.02,24.96-27.32,32.63-44.33,27.26-60.4-18.76-122.98-29.91-178.8-5.3-26.54,3.68-79.58-28.45-91.52-33.38-12.41-63.89,24.88-89.41,40.58-22.58.39-44.99-2.76-67.64-1.66-10,.48-22.05,4.31-31.9,4.26-19.25-.1-54.14-36.78-82.88-41.26-51.66-8.06-43.93,60.36-55.07,91.09-4.44,12.23-16.72,29.91-22.73,43.25-23.42,51.96-39.72,112.45-.24,161.63,4.04,5.03,23.41,25.21,27.92,28.07,1.45.92,3.51,2.33,4.11-.23,25.93-53.77,108.52-57.7,144.9-12.83,5.7,7.03,8.94,18.38,11.96,22.03,3.54,4.29,26.89,1.18,33.74,1.72,21.91-49.61,88.17-67.28,132.68-36.19,4.94,3.45,15.47,16.96,20.28,14.18ZM2187.81,1749.7c28.16-12.89,46.26-33.37,61.03-59.92,29.67-53.33,34.5-118.61,115-103.08,21.87,4.22,60.02,23.64,77.93,2.09,30.6-36.82-37.68-68.16-67.26-70.75-69.56-6.09-123.16,42.16-149.05,102.37-11.66,27.11-10.38,34.63-13.68,62.3-2.94,24.7-8.98,46.9-23.97,66.99ZM2297.78,1777.71v-105.97l-27.16,49.82-18.88,25.11-39.94,31.04h85.98ZM1855.42,1764.24c-17.23,2.51-36.99,19.1-33.07,38.01,7.23,34.84,69.79,39.42,85.28,8.2,16.35-32.96-24.01-50.32-52.21-46.21ZM2047.32,1768.19c-23.62,3.95-39.78,31.38-22.53,51.58,20.61,24.14,79.32,18.08,81.19-17,1.6-30.24-34.47-38.61-58.65-34.57Z"/>
  <path d="M670.22,1329.84c12.93-13.32,22.88-30.32,32.82-46.15,18.26-29.09,36.92-72.23,56.26-97.69,12.03-15.83,35.78-8.67,32.79,12.72-1.77,12.67-26.5,43.42-32.39,57.76-.81,1.97-1.87,3.68-1.2,5.94.7,4.48,25.02,32,29.12,33.16,6.21,1.75,22.82-15.06,25.05-20.23,2.84-6.56-1.2-22.31-.24-32.23,1.47-15.16,14.89-49.77,22.07-63.9,14.45-28.43,70.22-31.83,84.44-1.12,8.36,18.05.64,38.17-4.78,55.76,9.2.16,15.09,1.46,22.99-3.99,22.96-15.82,19.86-36.48,26.93-59.05,10.07-32.17,32.24-55.6,68.03-54.94-.34-45.5,4.69-128.41,46.13-156.81,22.19-15.21,48.03-4.79,51.68,22.04,7.37,54.18-34.25,134.78-55.37,184.24-2.2,10.05,2.74,19.31,5.59,28.52,2.59,1.86,18.34-15,20.99-17.96,15.98-17.89,19.74-29.87,30.63-49.35,15-26.86,42.95-57.29,75.2-34.66,4.83-1.02,3.44-18.68,18.62-21.6,26.06-5.02,22.04,39.71,33.48,53.56l27.96-23.99c4.59-13.02-.85-45.05,7.95-54.03,10.28-10.49,27.47-4.53,30.66,9.58l-1.57,56.48c15.09-18.24,24.74-40.84,40.03-58.92,43.72-51.72,62.96-5.22,73.95,38.93,6.91,5.18,46.07-51.57,53.99-54.94,11.9-5.06,25.72,3.42,25.68,15.96-.03,8.73-21,32.69-27.66,40.04-18.02,19.89-51.95,56.34-77.08,24.99-8.93-11.15-11.64-26.46-16.43-39.62-.69-1.9.37-6.01-3.49-4.39-7.16,2.99-44.41,71.5-58.02,83.95-16.85,15.41-37.49,9.51-44.04-12.06-17.17,8.22-31.32,21.64-50.83,8.97-5.12-3.33-6.8-8.31-9.93-11.62-1.59-1.68-1.36-1.84-4.13-1.27-11.35,31.51-32.76,70.25-72.54,63.5-9.56-1.62-15.15-8.21-23.43-11.51-18.25,29.25-54.29,54.94-81.02,18.02-14.23,20.61-32.71,46.83-61.52,41.48-5.43-1.01-13.38-7.77-16.16-7.23-1.47.28-17.05,15.54-23.48,18.51-19.27,8.91-34.25,4.75-53.46-.53-7.82,12.96-20.94,26.9-35.89,31.14-5.06,1.43-17.29.79-18.39,1.46-3.78,2.33-16.17,20.04-23.04,25.1-20.59,15.14-37.96,12.25-57-2.97l-22.95-23c-15.14,20.72-46.21,81.36-75.5,79.47-24.06-1.55-23.92-26.28-28.48-43.49-18.44,15.33-42.96,36.51-65.92,44.06-71.16,23.39-82.56-84.92-32.45-114.43,42.16-24.82,90.72.34,55,47l-24.6,29.38c10.14-5.46,19.6-12.31,28.77-19.22,8.69-6.56,41.82-31.91,43.78-40.2,4.45-18.86,5.21-44.49,9.04-64.93,7.21-38.44,26.76-139.08,58.37-161.57,20.84-14.83,40.39-4.55,47.57,18.39,10.96,35-7.95,82.62-22.24,114.92-7.6,17.18-60.34,109.09-60.34,115.62v28.99ZM1070.09,1089.89c10.45-32.09,23.19-63.96,26-97.96-20.18,19.89-26.08,57.56-27.95,84.99-.19,2.72-1.71,12.36,1.96,12.97ZM690.19,1189.86c12.33-32.16,31.29-64.46,30-99.95l-8.94,16.02c-8.11,25.12-18.12,51.69-22.11,77.88-.32,2.1-2.7,6.51,1.06,6.05ZM1183.43,1120.17c-14.15,1.36-44.37,62.66-13.38,48.66,5.22-2.36,23.58-33.71,23.33-37.93-.13-2.12-6.76-11.04-9.94-10.73ZM1021.6,1152.36c-16.14,2.88-26.53,31.91-27.53,46.43-2.21,32.31,10.93,14.54,21.69-.29,5.56-7.66,25.27-36.53,19.49-44.75-3.62-3.1-9.26-2.17-13.65-1.39ZM884.14,1213.86l3.19-20.09c-29.73-7.88-18.87,9.48-3.19,20.09ZM848.18,1259.84c5.65.41,15.27-8.45,15.7-13.34l-10.74-12.63c-4.16-.66-2.38.57-3.19,2.72-2.8,7.35-1.59,15.58-1.77,23.25ZM558.24,1289.86c-8.57,1.44-14.94,9.64-15.97,17.98,2.74-1.5,18.37-15.58,15.97-17.98Z"/>
  <path d="M2521.72,927.92c26.09,9.87,32.05-17.5,45.13-29.83,10.24-9.66,29.31-4.2,30.83,11.06.92,9.25-17.74,32.32-24.93,38.83-20.25,18.34-42.97,20.96-68.11,10.43-18.45,25.38-48.69,49.42-75.9,19.55-17.71,16.74-38.38,45.63-66.45,36.42-19.79-6.49-22.59-38.87-31.53-54.41-5.93.09-48.5,79.72-66.24,89.67-12.03,6.74-29.98,3.16-32.76-11.72h-2.94c-17.32,19.56-45.81,31.88-60,2-15.57,14.9-35.45,54.93-61.1,49.16-17.44-3.93-17.4-28.95-20.87-29.13-8.97,5.57-18.19,11.16-28.05,3.98-8.44-6.14-6.97-18.21-14.92-24.02-14.5,22.9-24.39,49.16-39.17,71.82-6.54,10.03-13.12,21.89-27.13,21.04-12.9-.78-17.71-9.19-19.72-20.88-22.3,13.59-41.82,17.23-58.96-5.96-11.45,22.67-26.07,55.93-53.35,62.57-23.68,5.76-48.29-7.81-51.69-32.57l-35.89,6.98c-4.8,2.54-8.05,29.27-9.4,36.59-2.53,13.65-13.38,71.4-9.58,80.31,2.85,6.7,15.85,18.39,20.51,29.47,11.71,27.83,8.17,85.47-32.36,80.36-32.02-4.03-29.81-55.59-29.27-78.89.19-8.3,5.54-15.27-.76-23.08-7.12-8.82-39.81-28.54-51.1-34.87-8.83-4.95-69.78-35.02-74.02-30.96l-37.66,171.39c-4.89,14.39-26.85,14.25-32.49-.34l36.16-181.03c-4.3.08-8.67-.32-12.98.02-19.46,1.53-95.44,22.96-82.58-20.61,7.86-26.63,84.93-12.18,105.11-19.84l40.39-176.55c12.18-13.85,32.44-6.99,32.11,11.92l-33.04,157.11,138.66-30.3,25.23-131.72c3.32-21.93,34.46-22.19,35.2,1.03l-23.15,123,36.46-8.53c14.87-31.39,43.36-64.33,80.46-41.48,2.96-13.11,10.5-26.11,26.13-21.1,15.28,4.9,15.23,38.11,21.92,51.08,4.1,2.83,28.59-19.43,30.86-24.09,7.69-15.79-2.62-58.99,22.57-61.46,25.35-2.48,17.1,32.85,16.54,47.56l20.02-30.94c11.81-16.03,32.66-24.49,48.93-9.02,3.93,3.73,8.64,16.13,13.65,15.69,14.6-1.29,2.81-30.02,24.34-31.86,28.32-2.42,16.62,29.89,19.99,46.14l40.99-56.99c7.76-6.58,14.34-9.45,23.46-3.43,13.58,8.95,5.17,25.97,11.53,38.42l23.97-24.02c3.9-16.53-6.11-63.12,18.5-65.53,30.09-2.94,15.4,56.61,16.54,73.56,18.22-20.17,43.45-81.89,73.48-83.51,30.37-1.64,31.15,39.61,40.02,56.96,1.03,2.01,2.35,5.13,5.3,4.47,4.1-.91,39.73-42.53,43.19-48.83,14.98-27.25,13.13-69.46,51.81-76.15,53.72-9.29,69.95,31.97,48.1,75.07ZM2495.44,888.24c-6.63-4.12-12.7-.41-19.72-.28-3.87,4,12.52,16.78,15.01,19.94,3.07.02,6.74-16.49,4.71-19.67ZM2467.03,949.23c2.24-2.25,3.64-6.19,6.59-8.29l-12.89-12.96c-4.04-.09-8.61,30.19-1.02,26.98,1.76-2.7,5.29-3.71,7.31-5.73ZM1853.17,1084.05c-9.24,4.4-33.9,41.55-23.41,48.98,11.7,8.28,31.16-26.39,33.31-35.12,1.66-6.74-3.96-11.36-9.9-13.86ZM1717.93,1151.89l-107.96,25.96c15.35,3.9,29.64,12.25,44.03,18.97l51.93,31.02,12-75.96Z"/>
  <path d="M402.32,1399.81c4.89.64,3.16-.03,4.17-2.78,5.4-14.69,8.3-33.28,13.26-48.73,28.03-87.31,69.94-181.71,181.37-164.3,16.23,2.54,17.76,26.76,4.61,32.37-8.6,3.67-37.22,1.69-49.97,4.01-62.02,11.3-88.46,92.2-104.47,145.46-5.33,17.71-21.3,71.53-20.72,87.08.28,7.44,14.86,38.71,17.2,52.39,3.49,20.34,4.62,61.99-23,66.09-29.66,4.4-36.71-39.41-36.63-60.64.05-13.06,7.56-45.44,5.31-54.96-1.95-8.25-17.65-33.87-22.8-43.33-25.38-46.63-53.1-94.09-79.99-139.95-2.12-3.61-4.52-8.69-8.31-10.66-23.58,68.77-54.22,138.07-88.95,201.99-35.34,65.02-86.88,155.22-172.01,152.05-26.85-1-27.96-32.96-5.85-36,26.9-3.69,36.52,1.23,61.5-16.47,56.15-39.79,123.3-187.94,150.24-253.65,9.23-22.51,31.18-72.14,34.24-93.87.62-4.4-8.14-25.16-9.84-32.39-5.15-21.95-8.99-53.72,7.62-71.66,20.15-21.77,45.59-1.73,48.85,23.19,3.78,28.93-6.24,47.53-7.67,72.12-.61,10.61,17.48,42.66,23.49,54.02,24.78,46.87,55.59,90.78,78.35,138.61Z"/>
  <path d="M2433.13,388.71c9.09,8.4,12.97,52.72,30.66,72.3,17.37,19.22,42.24,21.2,57.85,34.13,9.33,7.73,8.14,21.45-.89,28.93-21.76,18.05-47.01,15.93-64.09,47.88-8.07,15.1-13.3,55.89-23.46,62.52-27.07,17.66-32.06-29.41-37.95-44.93-8.66-22.83-15.8-32.44-36.87-45.1-17.17-10.32-52.61-15.06-41.09-41.88,3.55-8.28,48.51-24.94,61.3-40.67,17.41-21.4,14.83-44.19,24.17-65.81,5.15-11.92,20.33-16.66,30.38-7.37ZM2469.72,508.1c-23.15-8.98-36.87-28.1-49.95-48.02-7.84,22.71-27.19,40.09-48,50.97,13.22,8.32,25.79,15.83,35.92,28.06l15.03,20.92c10.6-20.12,25.48-37.03,45.76-47.81l1.24-4.13Z"/>
  <path d="M352.93,435.45c-5.58-5.2-12.98-40.6-17.66-51.32-6.64-15.22-13.51-23.45-27.13-32.86-10.99-7.59-45.92-19.71-48.91-29.06-8.21-25.69,26.74-30.96,43.7-42.48,17.35-11.79,25.19-21.98,32.29-41.69,4.48-12.43,7.68-41.86,17.62-48.35,27.07-17.66,32.06,29.42,37.95,44.93,8.56,22.57,15.88,32.69,36.87,45.1,17.12,10.12,52.65,14.94,41.09,41.88-3.56,8.3-48.22,24.6-61.3,40.67-16.42,20.19-15.63,42.4-23.69,64.29-4.73,12.83-20.08,18.92-30.85,8.88ZM412.29,310.14c-22.85-8.28-37.04-28.56-49.96-48.01-4.25,15.27-15.33,27.89-27.08,37.93-3.41,2.91-21.37,12.77-18.93,16.03,22.85,8.28,37.05,28.56,49.96,48.01,2.77-9.67,10.25-20.58,17-28.01,8.49-9.35,19.67-13.9,26.9-21.08,1.67-1.66,2.81-1.84,2.11-4.86Z"/>
  <path d="M1330.64,1531.17c-10.97-10.02-6.06-23.44,4.74-31.05,29.9-21.07,49.82-15.72,66.17-57.8,6.63-17.07,9.39-69.36,39.2-50.23,8.36,5.37,14.83,41.5,20.29,53.68,7.68,17.15,17.7,26.91,33.63,36.35,10.08,5.98,36.55,14.27,41.06,22.91,12.98,24.84-28.48,34.29-44.34,45.12-16.87,11.51-23.95,22.06-30.89,41.09-4.39,12.03-7.93,43.16-17.73,48.24-28.3,14.68-30.78-27.02-37.24-44.22-7.47-19.89-13.87-30.1-31.66-42.32-11.28-7.75-36.55-15.69-43.22-21.78ZM1433.98,1565.76c6.73-23.61,27.11-37.42,45.98-50.98-21.36-12-37.24-27.35-48.95-48.95-11.69,22.68-28.76,37.21-48.98,51.92,20.1,8.08,39.66,26.38,47.84,46.78l4.11,1.22Z"/>
  <path d="M2503.14,618.44c25.7-7.68,21.09,29.83,31.7,45.45,8.18,12.04,36.25,22.15,38.45,29.54,6.94,23.3-27.45,23.12-40.64,38.5-10.93,12.75-11.39,44.55-28.23,45.47-20.1,1.1-17.14-36.68-28.65-50.43-9.17-10.95-37.93-17.52-37.51-31.61.52-17.45,29.58-19.14,41.46-32.35,9.6-10.67,13.25-41.52,23.42-44.56ZM2503.75,718l21.97-19.05-19.01-22.92-20.95,20.99c7.57,5.37,15.49,11.43,17.99,20.99Z"/>
  <path d="M1233.37,1399.12c12.24-13.14,10.94-42.68,26.7-46.45,21.9-5.23,19.27,33.84,29.99,48.12,10.7,14.25,41.89,18.16,37.57,37.56-2.75,12.35-30.63,16.25-41.28,28.74-9.89,11.6-11.52,41.58-23.75,44.29-25.15,5.58-19.78-31.4-31.67-47.46-10.39-14.03-46.67-20.11-36.38-40.65,5.27-10.52,29.07-13.7,38.82-24.16ZM1280.04,1435.77l-18.98-23.92c-5.82,6.84-12.13,14.84-21,17.99l19.02,21.95,20.96-16.03Z"/>
  <path d="M547.67,156.57c23.47-7.01,21.41,20.49,26.51,34.65,9.36,25.98,38.18,27.58,43,38.96,9.78,23.05-28.92,25.32-40.93,40.96-11.08,14.44-10.87,53.18-35.97,41.94-8.28-3.71-10.46-35.9-20.02-47.95s-37.1-16.11-37.1-31.99c0-17.24,29.51-19.13,41.09-32,9.6-10.67,13.25-41.52,23.42-44.56ZM530.26,236.09c8.62,2.32,13.63,11.58,19.06,18.04l20.94-17.06-19.01-22.92-20.99,21.95Z"/>
  <path d="M2051.38,1594.14c40.4-4.62,43.49,86.28,3.12,86.96-36.54.62-42.07-82.51-3.12-86.96Z"/>
  <path d="M1859.42,1592.14c40.44-6.04,44.35,87.32,3.48,87.32-36.42,0-40.54-81.78-3.48-87.32Z"/>
  <path d="M1812.21,1460.13c9.8-6.05,25.96,19.07,30.03,26.33,5.73,10.21,12.79,19.26,1.1,27.76-7,5.09-39.11,17.95-43.09,6.24-2.83-8.32,5.94-56.61,11.97-60.33Z"/>
  <path d="M2113.35,1464.26c6.18,6.64,9.9,52.74,3.67,57.71-7.84,6.27-42.17-8.69-41.12-21.03.77-9.02,18.61-28.57,25.89-34.18,3.2-2.47,7.66-6.69,11.56-2.5Z"/>
  <path d="M1971.39,1644.24c4.87,4.87,1.13,21.33,2.8,28.18,2.2,6.37,29.29,9.43,19.83,23.95-6.88,10.56-23.06-5.89-29.15-5.89-9.16,0-25.83,22.08-34.19,3.32v-4.14c1.25-7.39,21-13.23,22.78-16.32,2.17-3.8-.91-22.12,4.24-28.76,3.01-3.88,10.53-3.52,13.7-.34Z"/>
  <path d="M1797.52,1682.21c17.13-1.44,21.93,16.24,11.17,23.31-5.93,3.89-42.74,9.83-49.39,7.82-8.62-2.61-9.73-17.65-1.28-22.5,3.53-2.03,34.03-8.17,39.5-8.63Z"/>
  <path d="M2143.31,1711.21c-6.58,6.22-36.12-4.25-43.32-8.63-12.34-7.51-6.01-25.69,8.34-24.47,1.93.16,30.14,10.58,32.23,11.9,7.63,4.81,9.34,14.98,2.75,21.21Z"/>
  <path d="M1761.36,1628.17c4.13-1.22,34.14,2.72,38.5,4.65,13.35,5.89,7.69,24.09-5.03,24.85-3.47.21-29.29-3.65-33-4.82-11.66-3.7-10.39-21.74-.47-24.68Z"/>
  <path d="M2143.35,1624.23c5.14,5.15,3.13,15.3-2.8,19.25-10.53,7-49.35,20.05-44.36-4.26,2.36-11.45,39.94-22.21,47.15-14.99Z"/>
</svg>