<?xml version="1.0" encoding="UTF-8"?>
<svg id="Layer_1" data-name="Layer 1" xmlns="http://www.w3.org/2000/svg" viewBox="0 0 200 200">
  <defs>
    <style>
      .cls-1 {
        fill: #fff;
      }
    </style>
  </defs>
  <path class="cls-1" d="M76.99,82c6.36-54.04,71.28-65.74,99.81-19.3,15.64,25.46,7.98,38.17-8.4,59.2-26.32,33.79-58.03,57.21-99.53,29.73-13.04-8.64-45.1-40.14-49.37-54.63-7.91-26.84,23.98-47.55,45.02-29.02,4.78,4.21,7.18,10.35,12.47,14.02ZM118.76,48.26c-22.39,3.07-34.45,29.33-24.64,49.12,3.5,7.06,11.67,14.11,16.86,20.12-3.96,3.88-9.63,5.44-15.02,4.03-7.77-2.03-22.64-15.44-28.48-21.51-4.79-4.97-15.39-20.61-19.77-23.23-9.52-5.68-18.91,3.6-13.74,13.74,7.41,14.53,38.9,44.41,54.49,49.51,27.73,9.06,51.94-18.24,66.35-38.72,7.31-10.39,11.89-14.64,6.06-27.69-7.46-16.71-23.41-27.93-42.11-25.37Z"/>
  <path class="cls-1" d="M121.73,68.23c7.24-1.3,12.75,1.93,16.7,7.83,7.27,10.87-4.89,18.78-11.07,26.86-1.06.18-12.6-11.18-13.88-12.91-5.91-7.95-1.59-20.02,8.25-21.79Z"/>
</svg>